<?xml version="1.0" encoding="utf-8"?>
<svg width="100px" height="100px" viewBox="0 0 100 100" version="1.1" xmlns:xlink="http://www.w3.org/1999/xlink" xmlns="http://www.w3.org/2000/svg">
  <defs>
    <path d="M100 0L100 0L100 100L0 100L0 0L100 0Z" id="path_1" />
    <clipPath id="clip_1">
      <use xlink:href="#path_1" clip-rule="evenodd" fill-rule="evenodd" />
    </clipPath>
  </defs>
  <g id="Concept" clip-path="url(#clip_1)">
    <path d="M100 0L100 0L100 100L0 100L0 0L100 0Z" id="Concept" fill="none" stroke="none" />
    <path d="M89.016 55.791C89.316 55.175 89.582 54.527 89.812 53.848C92.445 46.078 88.463 36.77 80.079 34.523C79.172 23.14 71.172 15.33 62.138 13.998C51.797 12.473 42.324 19.042 39.172 29.483C35.373 28.137 31.671 28.301 28.182 30.34C26.599 31.072 25.151 32.152 23.852 33.573C21.945 35.659 20.705 38.292 20.2 41.068C19.452 41.186 18.717 41.304 18.024 41.552C13.984 43.001 11.435 45.983 10.736 50.475C10.301 53.272 11.179 56.062 11.669 57.189C13.604 61.644 18.091 64.169 22.65 63.501C22.877 63.468 23.207 63.57 23.402 63.734C23.643 70.854 27.1 77.151 32.286 80.748C40.607 86.52 51.313 84.742 58.067 76.827C60.961 79.787 64.405 81.225 68.451 80.703C72.474 80.184 75.598 77.964 77.877 74.354C78.93 74.637 79.928 75.045 80.96 75.158C85.002 75.6 88.284 73.993 90.692 70.358C91.614 68.967 92.485 67.164 92.485 64.004C92.486 60.748 91.193 57.781 89.016 55.791L89.016 55.791Z" id="Shape" fill="#C7EDE6" stroke="none" />
    <path d="M77.121 49.162C77.121 49.162 88.812 49.162 88.883 49.162C91.583 49.162 93.771 46.973 93.771 44.273C93.771 41.918 92.105 39.952 89.887 39.489C89.913 39.283 89.93 39.074 89.93 38.861C89.93 36.065 87.663 33.798 84.867 33.798C83.216 33.798 81.754 34.592 80.83 35.815C80.594 32.702 77.813 30.301 74.56 30.699C72.181 30.99 70.214 32.829 69.776 35.185C69.636 35.941 69.65 36.674 69.79 37.362C69.152 36.675 68.244 36.243 67.233 36.243C65.383 36.243 63.872 37.684 63.753 39.504C62.913 39.318 61.999 39.33 61.036 39.692C59.196 40.383 57.886 42.115 57.809 44.079C57.7 46.868 59.929 49.164 62.694 49.164C62.904 49.164 63.642 49.164 63.812 49.164L73.963 49.164" id="Shape" fill="#FDFCEF" stroke="none" />
    <path d="M88.883 49.662L77.121 49.662C76.845 49.662 76.621 49.438 76.621 49.162C76.621 48.886 76.845 48.662 77.121 48.662L88.883 48.662C91.303 48.662 93.272 46.693 93.272 44.273C93.272 42.207 91.806 40.4 89.786 39.978C89.532 39.925 89.36 39.686 89.392 39.428C89.414 39.242 89.431 39.053 89.431 38.861C89.431 36.345 87.384 34.298 84.868 34.298C83.43 34.298 82.103 34.961 81.229 36.116C81.104 36.282 80.888 36.352 80.69 36.294C80.49 36.235 80.348 36.06 80.332 35.853C80.228 34.476 79.554 33.183 78.482 32.304C77.399 31.416 76.026 31.023 74.622 31.195C72.457 31.46 70.667 33.138 70.269 35.276C70.145 35.943 70.149 36.611 70.282 37.262C70.326 37.482 70.22 37.704 70.02 37.806C69.823 37.908 69.578 37.866 69.425 37.702C68.85 37.083 68.072 36.743 67.235 36.743C65.667 36.743 64.357 37.97 64.255 39.537C64.245 39.683 64.173 39.817 64.056 39.904C63.94 39.991 63.789 40.022 63.648 39.992C62.806 39.805 62.011 39.86 61.215 40.159C59.546 40.785 58.379 42.368 58.312 44.097C58.265 45.304 58.699 46.447 59.534 47.315C60.369 48.184 61.493 48.662 62.697 48.662L73.967 48.662C74.243 48.662 74.467 48.886 74.467 49.162C74.467 49.438 74.243 49.662 73.967 49.662L62.697 49.662C61.218 49.662 59.839 49.075 58.813 48.009C57.787 46.943 57.254 45.54 57.312 44.058C57.396 41.932 58.823 39.989 60.864 39.223C61.665 38.923 62.492 38.825 63.332 38.924C63.709 37.102 65.329 35.742 67.236 35.742C67.921 35.742 68.59 35.922 69.18 36.252C69.179 35.867 69.215 35.479 69.287 35.093C69.763 32.531 71.906 30.519 74.501 30.202C76.176 29.997 77.821 30.468 79.116 31.53C80.12 32.353 80.833 33.481 81.154 34.723C82.167 33.807 83.473 33.297 84.868 33.297C87.935 33.297 90.431 35.793 90.431 38.86C90.431 38.943 90.429 39.026 90.424 39.109C92.678 39.781 94.272 41.886 94.272 44.273C94.272 47.245 91.855 49.662 88.883 49.662L88.883 49.662Z" id="Shape" fill="#472B29" stroke="none" />
    <path d="M74.288 38.394C72.48 38.275 70.923 39.524 70.812 41.183C70.798 41.389 70.807 41.592 70.837 41.789C70.488 41.395 69.972 41.128 69.379 41.089C68.294 41.018 67.357 41.734 67.221 42.709C67.024 42.655 66.818 42.619 66.605 42.605C65.023 42.501 63.661 43.594 63.563 45.046" id="Shape" fill="#FDFCEF" stroke="none" />
    <path d="M63.564 45.295C63.559 45.295 63.553 45.295 63.547 45.295C63.409 45.286 63.305 45.167 63.315 45.029C63.42 43.442 64.888 42.236 66.622 42.356C66.758 42.365 66.894 42.383 67.031 42.409C67.304 41.441 68.279 40.775 69.396 40.841C69.815 40.868 70.217 41.004 70.559 41.225C70.56 41.206 70.561 41.186 70.563 41.167C70.683 39.373 72.366 38.022 74.305 38.145C74.443 38.154 74.547 38.273 74.537 38.411C74.529 38.548 74.428 38.663 74.271 38.644C72.612 38.533 71.163 39.682 71.06 41.201C71.048 41.387 71.056 41.573 71.083 41.752C71.1 41.862 71.043 41.969 70.942 42.017C70.841 42.063 70.721 42.039 70.648 41.956C70.331 41.597 69.861 41.373 69.361 41.34C68.423 41.278 67.587 41.895 67.468 42.745C67.457 42.816 67.417 42.879 67.358 42.919C67.298 42.959 67.222 42.97 67.155 42.952C66.966 42.901 66.775 42.868 66.587 42.856C65.142 42.76 63.9 43.752 63.812 45.064C63.804 45.194 63.695 45.295 63.564 45.295L63.564 45.295Z" id="Shape" fill="#472B29" stroke="none" />
    <path d="M90.863 40.062C89.164 39.261 87.199 39.828 86.474 41.329C86.384 41.515 86.317 41.708 86.273 41.903" id="Shape" fill="#FDFCEF" stroke="none" />
    <path d="M86.273 42.153C86.255 42.153 86.237 42.151 86.218 42.147C86.083 42.117 85.998 41.983 86.029 41.848C86.078 41.631 86.152 41.419 86.25 41.22C87.033 39.599 89.149 38.978 90.97 39.837C91.095 39.896 91.149 40.045 91.09 40.17C91.03 40.296 90.88 40.348 90.757 40.29C89.182 39.549 87.364 40.064 86.7 41.439C86.619 41.605 86.557 41.779 86.517 41.959C86.491 42.074 86.387 42.153 86.273 42.153L86.273 42.153Z" id="Shape" fill="#472B29" stroke="none" />
    <path d="M18.681 47.827L8.651 47.827C8.375 47.827 8.151 47.603 8.151 47.327C8.151 47.051 8.375 46.827 8.651 46.827L18.681 46.827C18.957 46.827 19.181 47.051 19.181 47.327C19.181 47.603 18.957 47.827 18.681 47.827L18.681 47.827ZM21.562 47.827L20.117 47.827C19.841 47.827 19.617 47.603 19.617 47.327C19.617 47.051 19.841 46.827 20.117 46.827L21.562 46.827C21.838 46.827 22.062 47.051 22.062 47.327C22.062 47.603 21.838 47.827 21.562 47.827L21.562 47.827ZM25.617 47.827L23.071 47.827C22.795 47.827 22.571 47.603 22.571 47.327C22.571 47.051 22.795 46.827 23.071 46.827L25.617 46.827C25.893 46.827 26.117 47.051 26.117 47.327C26.117 47.603 25.893 47.827 25.617 47.827L25.617 47.827ZM25.617 49.692L16 49.692C15.724 49.692 15.5 49.468 15.5 49.192C15.5 48.916 15.724 48.692 16 48.692L25.616 48.692C25.892 48.692 26.116 48.916 26.116 49.192C26.116 49.468 25.893 49.692 25.617 49.692L25.617 49.692ZM14.269 49.692L13.689 49.692C13.413 49.692 13.189 49.468 13.189 49.192C13.189 48.916 13.413 48.692 13.689 48.692L14.269 48.692C14.545 48.692 14.769 48.916 14.769 49.192C14.769 49.468 14.545 49.692 14.269 49.692L14.269 49.692ZM11.892 49.692L10.436 49.692C10.16 49.692 9.936 49.468 9.936 49.192C9.936 48.916 10.16 48.692 10.436 48.692L11.892 48.692C12.168 48.692 12.392 48.916 12.392 49.192C12.392 49.468 12.168 49.692 11.892 49.692L11.892 49.692ZM21.028 45.962L16 45.962C15.724 45.962 15.5 45.738 15.5 45.462C15.5 45.186 15.724 44.962 16 44.962L21.027 44.962C21.303 44.962 21.527 45.186 21.527 45.462C21.527 45.738 21.304 45.962 21.028 45.962L21.028 45.962ZM21.028 44.097L19.771 44.097C19.495 44.097 19.271 43.873 19.271 43.597C19.271 43.321 19.495 43.097 19.771 43.097L21.028 43.097C21.304 43.097 21.528 43.321 21.528 43.597C21.528 43.873 21.304 44.097 21.028 44.097L21.028 44.097ZM17.759 51.556L16 51.556C15.724 51.556 15.5 51.332 15.5 51.056C15.5 50.78 15.724 50.556 16 50.556L17.759 50.556C18.035 50.556 18.259 50.78 18.259 51.056C18.259 51.332 18.036 51.556 17.759 51.556L17.759 51.556ZM71.859 21.55L61.829 21.55C61.553 21.55 61.329 21.326 61.329 21.05C61.329 20.774 61.553 20.55 61.829 20.55L71.859 20.55C72.135 20.55 72.359 20.774 72.359 21.05C72.359 21.326 72.135 21.55 71.859 21.55L71.859 21.55ZM74.74 21.55L73.295 21.55C73.019 21.55 72.795 21.326 72.795 21.05C72.795 20.774 73.019 20.55 73.295 20.55L74.74 20.55C75.016 20.55 75.24 20.774 75.24 21.05C75.24 21.326 75.016 21.55 74.74 21.55L74.74 21.55ZM78.794 21.55L76.248 21.55C75.972 21.55 75.748 21.326 75.748 21.05C75.748 20.774 75.972 20.55 76.248 20.55L78.794 20.55C79.07 20.55 79.294 20.774 79.294 21.05C79.294 21.326 79.071 21.55 78.794 21.55L78.794 21.55ZM76.769 17.82L67.153 17.82C66.877 17.82 66.653 17.596 66.653 17.32C66.653 17.044 66.877 16.82 67.153 16.82L76.769 16.82C77.045 16.82 77.269 17.044 77.269 17.32C77.269 17.596 77.045 17.82 76.769 17.82L76.769 17.82ZM65.421 17.82L64.841 17.82C64.565 17.82 64.341 17.596 64.341 17.32C64.341 17.044 64.565 16.82 64.841 16.82L65.421 16.82C65.697 16.82 65.921 17.044 65.921 17.32C65.921 17.596 65.698 17.82 65.421 17.82L65.421 17.82ZM63.044 17.82L61.588 17.82C61.312 17.82 61.088 17.596 61.088 17.32C61.088 17.044 61.312 16.82 61.588 16.82L63.044 16.82C63.32 16.82 63.544 17.044 63.544 17.32C63.544 17.596 63.321 17.82 63.044 17.82L63.044 17.82ZM74.205 19.685L69.178 19.685C68.902 19.685 68.678 19.461 68.678 19.185C68.678 18.909 68.902 18.685 69.178 18.685L74.205 18.685C74.481 18.685 74.705 18.909 74.705 19.185C74.705 19.461 74.482 19.685 74.205 19.685L74.205 19.685Z" id="Shape" fill="#FFFFFF" fill-rule="evenodd" stroke="none" />
    <path d="M74.205 17.82L72.948 17.82C72.672 17.82 72.448 17.596 72.448 17.32C72.448 17.044 72.672 16.82 72.948 16.82L74.205 16.82C74.481 16.82 74.705 17.044 74.705 17.32C74.705 17.596 74.482 17.82 74.205 17.82L74.205 17.82ZM67.723 19.685L65.964 19.685C65.688 19.685 65.464 19.461 65.464 19.185C65.464 18.909 65.688 18.685 65.964 18.685L67.723 18.685C67.999 18.685 68.223 18.909 68.223 19.185C68.223 19.461 67.999 19.685 67.723 19.685L67.723 19.685Z" id="Shape" fill="#FFFFFF" fill-rule="evenodd" stroke="none" />
    <path d="M67.127 72.76L37.414 72.76C33.648 72.76 30.567 69.679 30.567 65.913L30.567 36.2C30.567 32.434 33.648 29.353 37.414 29.353L67.127 29.353C70.893 29.353 73.974 32.434 73.974 36.2L73.974 65.913C73.974 69.679 70.893 72.76 67.127 72.76L67.127 72.76Z" id="Shape" fill="#39C1D7" stroke="none" />
    <path d="M67.127 73.461L37.414 73.461C33.252 73.461 29.866 70.075 29.866 65.914L29.866 36.2C29.866 32.038 33.252 28.653 37.414 28.653L67.127 28.653C71.288 28.653 74.674 32.039 74.674 36.2L74.674 65.913C74.674 70.075 71.288 73.461 67.127 73.461L67.127 73.461ZM37.414 30.053C34.024 30.053 31.267 32.81 31.267 36.2L31.267 65.913C31.267 69.303 34.025 72.06 37.414 72.06L67.127 72.06C70.517 72.06 73.273 69.303 73.273 65.913L73.273 36.2C73.273 32.81 70.516 30.053 67.127 30.053L37.414 30.053L37.414 30.053Z" id="Shape" fill="#472B29" fill-rule="evenodd" stroke="none" />
    <path d="M65.325 69.66L39.216 69.66C36.164 69.66 33.667 67.163 33.667 64.111L33.667 38.002C33.667 34.95 36.164 32.453 39.216 32.453L65.325 32.453C68.377 32.453 70.874 34.95 70.874 38.002L70.874 64.111C70.874 67.163 68.377 69.66 65.325 69.66L65.325 69.66Z" id="Shape" fill="#FDFCEE" stroke="none" />
    <path d="M65.22 70.01L39.322 70.01C36.011 70.01 33.318 67.316 33.318 64.006L33.318 38.107C33.318 34.796 36.011 32.103 39.322 32.103L63.984 32.103C64.177 32.103 64.334 32.26 64.334 32.453C64.334 32.646 64.178 32.803 63.984 32.803L39.322 32.803C36.397 32.803 34.017 35.182 34.017 38.107L34.017 64.005C34.017 66.93 36.397 69.309 39.322 69.309L65.22 69.309C68.144 69.309 70.524 66.93 70.524 64.005L70.524 49.678C70.524 49.485 70.68 49.328 70.874 49.328C71.068 49.328 71.224 49.485 71.224 49.678L71.224 64.005C71.223 67.316 68.531 70.01 65.22 70.01L65.22 70.01ZM70.873 47.962C70.68 47.962 70.523 47.805 70.523 47.612L70.523 44.856C70.523 44.663 70.679 44.506 70.873 44.506C71.067 44.506 71.223 44.663 71.223 44.856L71.223 47.612C71.223 47.805 71.067 47.962 70.873 47.962L70.873 47.962ZM70.873 43.827C70.68 43.827 70.523 43.67 70.523 43.477L70.523 42.099C70.523 41.906 70.679 41.749 70.873 41.749C71.067 41.749 71.223 41.906 71.223 42.099L71.223 43.477C71.223 43.671 71.067 43.827 70.873 43.827L70.873 43.827Z" id="Shape" fill="#472B29" fill-rule="evenodd" stroke="none" />
    <path d="M54.939 56.837C55.529 56.473 55.774 55.63 55.643 55.195L55.486 53.937C57.813 52.768 59.531 50.411 59.531 47.672C59.531 43.776 56.186 40.606 52.21 40.606C48.234 40.606 45.011 43.765 45.011 47.661C45.011 50.4 46.607 52.769 48.934 53.938L48.777 55.196C48.777 55.928 49.264 56.553 49.935 56.777" id="Shape" fill="#FBCD59" stroke="none" />
    <path d="M54.939 57.162C54.831 57.162 54.724 57.107 54.663 57.007C54.568 56.855 54.616 56.654 54.768 56.56C55.224 56.279 55.424 55.596 55.331 55.289L55.163 53.978C55.145 53.841 55.217 53.709 55.34 53.647C57.688 52.467 59.205 50.122 59.205 47.672C59.205 43.955 56.066 40.931 52.209 40.931C48.419 40.931 45.336 43.95 45.336 47.66C45.336 50.193 46.771 52.487 49.079 53.646C49.202 53.708 49.273 53.84 49.256 53.977L49.099 55.235C49.102 55.769 49.478 56.28 50.037 56.467C50.208 56.524 50.3 56.708 50.243 56.878C50.185 57.048 50.002 57.142 49.832 57.083C49.006 56.808 48.451 56.048 48.451 55.194L48.584 54.12C46.173 52.818 44.686 50.364 44.686 47.659C44.686 43.59 48.061 40.279 52.209 40.279C56.425 40.279 59.855 43.595 59.855 47.671C59.855 50.292 58.285 52.799 55.835 54.12L55.964 55.153C56.132 55.694 55.809 56.68 55.109 57.112C55.056 57.146 54.997 57.162 54.939 57.162L54.939 57.162Z" id="Shape" fill="#472B29" stroke="none" />
    <path d="M51.35 56.156C51.344 56.156 51.338 56.156 51.332 56.155C51.222 56.145 51.141 56.048 51.15 55.938C51.299 54.289 51.183 52.965 50.775 51.819C50.321 51.926 49.848 51.855 49.493 51.602C49.161 51.367 48.959 51.045 48.939 50.718C48.922 50.443 49.033 50.19 49.258 49.986C49.373 49.881 49.497 49.817 49.627 49.796C49.93 49.746 50.241 49.93 50.466 50.284C50.676 50.614 50.856 50.955 51.007 51.312C51.066 51.283 51.122 51.249 51.177 51.211C51.262 51.152 51.339 51.087 51.409 51.018C51.167 50.698 51.125 50.26 51.283 49.717C51.358 49.464 51.597 49.222 51.84 49.153C52.007 49.105 52.166 49.138 52.288 49.246C52.46 49.399 52.504 49.641 52.418 49.966C52.34 50.267 52.202 50.638 51.966 50.977C52.264 51.138 52.659 51.129 52.845 51.114C53.129 51.091 53.402 50.967 53.616 50.768C53.235 50.497 53.064 50.136 53.142 49.746C53.196 49.478 53.429 49.204 53.697 49.095C53.878 49.021 54.059 49.031 54.203 49.128C54.398 49.259 54.421 49.48 54.438 49.64C54.474 49.982 54.397 50.333 54.223 50.64C54.304 50.672 54.388 50.699 54.472 50.721C54.739 50.232 55.015 49.88 55.277 49.778C55.51 49.687 55.744 49.762 55.911 49.988C56.264 50.46 56.128 50.76 56.016 50.898C55.778 51.188 55.222 51.257 54.672 51.172C53.989 52.596 53.328 55.067 53.412 55.85C53.424 55.96 53.344 56.058 53.234 56.07C53.118 56.089 53.026 56.002 53.013 55.893C52.928 55.097 53.544 52.64 54.286 51.085C54.179 51.053 54.075 51.016 53.977 50.973C53.686 51.285 53.289 51.48 52.875 51.515C52.409 51.552 51.999 51.473 51.704 51.289C51.613 51.38 51.513 51.466 51.4 51.543C51.32 51.599 51.235 51.647 51.149 51.689C51.577 52.889 51.699 54.268 51.545 55.978C51.539 56.078 51.453 56.156 51.35 56.156L51.35 56.156ZM49.727 50.187C49.715 50.187 49.705 50.187 49.693 50.189C49.629 50.2 49.567 50.245 49.528 50.281C49.394 50.403 49.331 50.541 49.34 50.693C49.353 50.896 49.496 51.113 49.725 51.275C49.97 51.448 50.304 51.5 50.628 51.44C50.488 51.113 50.322 50.8 50.13 50.498C50.032 50.343 49.878 50.187 49.727 50.187L49.727 50.187ZM54.87 50.792C55.257 50.833 55.597 50.776 55.708 50.642C55.797 50.534 55.673 50.334 55.592 50.225C55.509 50.114 55.461 50.133 55.424 50.148C55.254 50.215 55.065 50.45 54.87 50.792L54.87 50.792ZM51.988 49.53C51.978 49.53 51.967 49.532 51.951 49.536C51.838 49.568 51.706 49.705 51.669 49.828C51.564 50.19 51.566 50.479 51.677 50.69C51.86 50.412 51.968 50.11 52.033 49.862C52.075 49.701 52.072 49.585 52.024 49.542C52.018 49.539 52.009 49.53 51.988 49.53L51.988 49.53ZM53.931 49.444C53.909 49.444 53.881 49.45 53.85 49.463C53.71 49.521 53.563 49.689 53.537 49.823C53.48 50.107 53.669 50.316 53.87 50.453C54.009 50.216 54.07 49.944 54.042 49.681C54.032 49.588 54.021 49.485 53.981 49.457C53.967 49.449 53.951 49.444 53.931 49.444L53.931 49.444Z" id="Shape" fill="#472B29" fill-rule="evenodd" stroke="none" />
    <path d="M54.183 60.335L50.661 60.335C50.191 60.335 49.807 59.95 49.807 59.481L49.807 59.481C49.807 59.011 50.192 58.627 50.661 58.627L54.183 58.627C54.653 58.627 55.037 59.012 55.037 59.481L55.037 59.481C55.038 59.95 54.653 60.335 54.183 60.335L54.183 60.335Z" id="Shape" fill="#CBC9BC" stroke="none" />
    <path d="M54.183 60.66L50.661 60.66C50.011 60.66 49.481 60.131 49.481 59.48C49.481 58.829 50.01 58.3 50.661 58.3L54.183 58.3C54.833 58.3 55.363 58.829 55.363 59.48C55.363 60.131 54.833 60.66 54.183 60.66L54.183 60.66ZM50.661 58.951C50.369 58.951 50.132 59.188 50.132 59.48C50.132 59.772 50.369 60.009 50.661 60.009L54.183 60.009C54.475 60.009 54.712 59.772 54.712 59.48C54.712 59.188 54.475 58.951 54.183 58.951L50.661 58.951L50.661 58.951Z" id="Shape" fill="#472B29" fill-rule="evenodd" stroke="none" />
    <path d="M54.063 60.465C54.063 61.272 52.776 61.477 52.393 61.477C51.49 61.477 50.759 61.008 50.759 60.43" id="Shape" fill="#E1E0D8" stroke="none" />
    <path d="M52.393 61.802C51.294 61.802 50.433 61.199 50.433 60.429C50.433 60.249 50.579 60.104 50.758 60.104C50.937 60.104 51.083 60.25 51.083 60.429C51.083 60.771 51.621 61.151 52.393 61.151C52.678 61.151 53.738 60.98 53.738 60.464C53.738 60.284 53.884 60.139 54.063 60.139C54.242 60.139 54.388 60.285 54.388 60.464C54.388 61.475 53.044 61.802 52.393 61.802L52.393 61.802ZM57.908 47.846C57.825 47.846 57.758 47.779 57.758 47.696C57.758 47.218 57.691 46.746 57.558 46.29C57.535 46.211 57.579 46.127 57.66 46.104C57.74 46.083 57.823 46.127 57.846 46.206C57.988 46.688 58.06 47.19 58.06 47.696C58.058 47.779 57.991 47.846 57.908 47.846L57.908 47.846ZM57.339 45.494C57.284 45.494 57.233 45.464 57.205 45.413C56.461 43.966 55.047 42.945 53.422 42.681C53.144 42.636 52.856 42.612 52.567 42.612C52.484 42.612 52.417 42.545 52.417 42.462C52.417 42.379 52.484 42.312 52.567 42.312C52.872 42.312 53.176 42.336 53.471 42.385C55.189 42.664 56.685 43.744 57.473 45.275C57.51 45.349 57.482 45.44 57.408 45.477C57.386 45.488 57.363 45.494 57.339 45.494L57.339 45.494Z" id="Shape" fill="#472B29" fill-rule="evenodd" stroke="none" />
    <path d="M54.183 58.626C54.183 58.626 55.197 58.626 55.197 57.772L55.197 57.772C55.197 57.302 54.823 56.918 54.366 56.918L50.203 56.918C49.746 56.918 49.372 57.303 49.372 57.772L49.372 57.772C49.372 58.242 49.746 58.626 50.203 58.626L54.166 58.626" id="Shape" fill="#E1E0D8" stroke="none" />
    <path d="M54.183 58.951C54.177 58.951 54.171 58.951 54.165 58.951L50.202 58.951C49.564 58.951 49.046 58.422 49.046 57.771C49.046 57.12 49.565 56.591 50.202 56.591L54.365 56.591C55.003 56.591 55.522 57.12 55.522 57.771C55.523 58.705 54.646 58.951 54.183 58.951L54.183 58.951ZM50.203 57.242C49.924 57.242 49.697 57.479 49.697 57.771C49.697 58.063 49.924 58.3 50.203 58.3L54.166 58.3C54.172 58.3 54.177 58.301 54.183 58.3C54.3 58.299 54.873 58.267 54.873 57.771C54.873 57.479 54.645 57.242 54.366 57.242L50.203 57.242L50.203 57.242Z" id="Shape" fill="#472B29" fill-rule="evenodd" stroke="none" />
    <path d="M40.957 75.527C42.84 75.527 44.474 75.527 44.497 75.527C46.607 75.527 48.318 73.853 48.318 71.788C48.318 69.986 47.016 68.483 45.283 68.128C45.303 67.97 45.317 67.811 45.317 67.648C45.317 65.509 43.545 63.775 41.36 63.775C40.07 63.775 38.927 64.382 38.205 65.318C38.02 62.937 35.847 61.1 33.305 61.405C31.446 61.628 29.908 63.034 29.566 64.836C29.456 65.414 29.468 65.975 29.577 66.501C29.079 65.976 28.369 65.645 27.579 65.645C26.133 65.645 24.952 66.747 24.859 68.139C24.202 67.997 23.488 68.006 22.736 68.282C21.298 68.81 20.274 70.135 20.214 71.638C20.129 73.771 21.871 75.527 24.032 75.527C24.196 75.527 24.773 75.527 24.906 75.527L32.84 75.527M34.48 75.527L34.84 75.527" id="Shape" fill="#FDFCEF" fill-rule="evenodd" stroke="none" />
    <path d="M44.497 76.028L40.957 76.028C40.681 76.028 40.457 75.804 40.457 75.528C40.457 75.252 40.681 75.028 40.957 75.028L44.497 75.028C46.328 75.028 47.818 73.575 47.818 71.789C47.818 70.265 46.71 68.932 45.181 68.619C44.924 68.567 44.752 68.325 44.785 68.065C44.803 67.928 44.815 67.79 44.815 67.649C44.815 65.789 43.264 64.276 41.358 64.276C40.265 64.276 39.259 64.768 38.598 65.624C38.472 65.788 38.256 65.857 38.06 65.798C37.862 65.739 37.72 65.564 37.705 65.358C37.626 64.339 37.14 63.415 36.335 62.755C35.507 62.075 34.449 61.771 33.362 61.902C31.716 62.099 30.356 63.344 30.055 64.93C29.96 65.424 29.964 65.918 30.064 66.401C30.11 66.62 30.004 66.842 29.806 66.945C29.61 67.049 29.367 67.009 29.211 66.846C28.783 66.394 28.202 66.146 27.576 66.146C26.406 66.146 25.43 67.037 25.355 68.174C25.345 68.319 25.273 68.453 25.157 68.54C25.042 68.627 24.893 68.66 24.751 68.629C24.11 68.489 23.509 68.531 22.904 68.753C21.642 69.217 20.76 70.385 20.711 71.659C20.676 72.534 20.993 73.367 21.606 74.004C22.241 74.665 23.101 75.028 24.029 75.028L32.837 75.028C33.113 75.028 33.337 75.252 33.337 75.528C33.337 75.804 33.113 76.028 32.837 76.028L24.029 76.028C22.844 76.028 21.698 75.543 20.885 74.696C20.082 73.861 19.666 72.768 19.711 71.618C19.777 69.944 20.923 68.415 22.56 67.813C23.171 67.588 23.805 67.507 24.441 67.568C24.785 66.172 26.07 65.144 27.577 65.144C28.07 65.144 28.554 65.257 28.99 65.467C28.999 65.225 29.027 64.983 29.073 64.741C29.454 62.732 31.169 61.156 33.243 60.907C34.607 60.744 35.929 61.125 36.97 61.98C37.717 62.593 38.247 63.389 38.516 64.281C39.307 63.633 40.301 63.274 41.359 63.274C43.817 63.274 45.816 65.236 45.816 67.647C45.816 67.681 45.815 67.715 45.814 67.75C47.579 68.305 48.818 69.938 48.818 71.788C48.819 74.126 46.88 76.028 44.497 76.028L44.497 76.028ZM34.839 76.028L34.48 76.028C34.204 76.028 33.98 75.804 33.98 75.528C33.98 75.252 34.204 75.028 34.48 75.028L34.839 75.028C35.115 75.028 35.339 75.252 35.339 75.528C35.339 75.804 35.116 76.028 34.839 76.028L34.839 76.028Z" id="Shape" fill="#472B29" fill-rule="evenodd" stroke="none" />
    <path d="M42.79 70.224C42.772 70.224 42.754 70.222 42.735 70.218C42.6 70.188 42.515 70.054 42.546 69.919C42.584 69.752 42.641 69.59 42.716 69.439C43.32 68.217 44.988 67.766 46.437 68.433C46.563 68.491 46.618 68.64 46.559 68.765C46.501 68.89 46.351 68.945 46.228 68.887C45.022 68.331 43.648 68.678 43.165 69.661C43.107 69.776 43.063 69.9 43.035 70.028C43.008 70.145 42.905 70.224 42.79 70.224L42.79 70.224ZM37.631 76.028L36.524 76.028C36.248 76.028 36.024 75.804 36.024 75.528C36.024 75.252 36.248 75.028 36.524 75.028L37.631 75.028C37.907 75.028 38.131 75.252 38.131 75.528C38.131 75.804 37.908 76.028 37.631 76.028L37.631 76.028Z" id="Shape" fill="#472B29" fill-rule="evenodd" stroke="none" />
  </g>
</svg>